<svg xmlns="http://www.w3.org/2000/svg" version="1.1" xmlns:xlink="http://www.w3.org/1999/xlink" xmlns:svgjs="http://svgjs.dev/svgjs" width="1000" height="242" viewBox="0 0 1000 242"><g transform="matrix(1,0,0,1,-0.6060606060606233,-0.2370937125732695)"><svg viewBox="0 0 396 96" data-background-color="#ffffff" preserveAspectRatio="xMidYMid meet" height="242" width="1000" xmlns="http://www.w3.org/2000/svg" xmlns:xlink="http://www.w3.org/1999/xlink"><g id="tight-bounds" transform="matrix(1,0,0,1,0.2400000000000091,0.09405370416129699)"><svg viewBox="0 0 395.52 95.8118925916774" height="95.8118925916774" width="395.52"><g><svg viewBox="0 0 620.1212998622777 150.21995190184046" height="95.8118925916774" width="395.52"><g><rect width="6.214617242064882" height="150.21995190184046" x="202.11805109648287" y="0" fill="#8bc53f" opacity="1" stroke-width="0" stroke="transparent" fill-opacity="1" class="rect-o-0" data-fill-palette-color="primary" rx="1%" id="o-0" data-palette-color="#8bc53f"></rect></g><g transform="matrix(1,0,0,1,224.6012998622778,0.37368147239263294)"><svg viewBox="0 0 395.52 149.4725889570552" height="149.4725889570552" width="395.52"><g id="textblocktransform"><svg viewBox="0 0 395.52 149.4725889570552" height="149.4725889570552" width="395.52" id="textblock"><g><svg viewBox="0 0 395.52 149.4725889570552" height="149.4725889570552" width="395.52"><g transform="matrix(1,0,0,1,0,0)"><svg width="395.52" viewBox="3.75 -35.20000076293945 203.75 74.05000305175781" height="149.4725889570552" data-palette-color="#8bc53f"><svg></svg><svg></svg><g class="undefined-text-0" data-fill-palette-color="primary" id="text-0"><path xmlns="http://www.w3.org/2000/svg" d="M3.75-34.75h20.45v4.65h-14.75v10.25h11.5v4.65h-11.5v15.2h-5.7zM29.5-34.75h5.7v34.75h-5.7zM71.25-34.8v34.8h-5.7l-17.15-25.95v25.95h-5.7v-34.8h5.7l17.15 25.9v-25.9zM102.2 0l-2.5-7.1h-14.55l-2.5 7.1h-5.95l12.45-34.8h6.6l12.45 34.8zM86.75-11.75h11.35l-5.65-16.15zM142.15-34.8v34.8h-5.7l-17.15-25.95v25.95h-5.7v-34.8h5.7l17.15 25.9v-25.9zM147.75-17.45c0-3.4 0.793-6.45 2.38-9.15 1.58-2.7 3.73-4.81 6.45-6.33 2.713-1.513 5.687-2.27 8.92-2.27v0c3.7 0 6.993 0.907 9.88 2.72 2.88 1.82 4.97 4.397 6.27 7.73v0h-6.85c-0.9-1.833-2.15-3.2-3.75-4.1-1.6-0.9-3.45-1.35-5.55-1.35v0c-2.3 0-4.35 0.517-6.15 1.55-1.8 1.033-3.207 2.517-4.22 4.45-1.02 1.933-1.53 4.183-1.53 6.75v0c0 2.567 0.51 4.817 1.53 6.75 1.013 1.933 2.42 3.423 4.22 4.47 1.8 1.053 3.85 1.58 6.15 1.58v0c2.1 0 3.95-0.45 5.55-1.35 1.6-0.9 2.85-2.267 3.75-4.1v0h6.85c-1.3 3.333-3.39 5.9-6.27 7.7-2.887 1.8-6.18 2.7-9.88 2.7v0c-3.267 0-6.25-0.76-8.95-2.28-2.7-1.513-4.84-3.62-6.42-6.32-1.587-2.7-2.38-5.75-2.38-9.15zM207.5-30.15h-13.5v10.2h12v4.65h-12v10.65h13.5v4.65h-19.2v-34.8h19.2z" fill="#8bc53f" fill-rule="nonzero" stroke="none" stroke-width="1" stroke-linecap="butt" stroke-linejoin="miter" stroke-miterlimit="10" stroke-dasharray="" stroke-dashoffset="0" font-family="none" font-weight="none" font-size="none" text-anchor="none" style="mix-blend-mode: normal" data-fill-palette-color="primary" opacity="1"></path><path xmlns="http://www.w3.org/2000/svg" d="M3.75 3.75h20.45v4.65h-14.75v10.25h11.5v4.65h-11.5v15.2h-5.7zM35.2 3.75v30.15h11.75v4.6h-17.45v-34.75zM51.65 3.75h5.7v22.15c0 2.633 0.693 4.617 2.08 5.95 1.38 1.333 3.303 2 5.77 2v0c2.5 0 4.443-0.667 5.83-2 1.38-1.333 2.07-3.317 2.07-5.95v0-22.15h5.7v22.05c0 2.833-0.617 5.233-1.85 7.2-1.233 1.967-2.883 3.433-4.95 4.4-2.067 0.967-4.35 1.45-6.85 1.45v0c-2.5 0-4.773-0.483-6.82-1.45-2.053-0.967-3.68-2.433-4.88-4.4-1.2-1.967-1.8-4.367-1.8-7.2v0zM105.4 8.35h-13.5v10.2h12v4.65h-12v10.65h13.5v4.65h-19.2v-34.8h19.2zM140.95 3.7v34.8h-5.7l-17.15-25.95v25.95h-5.7v-34.8h5.7l17.15 25.9v-25.9zM146.65 3.75h24.25v4.65h-9.25v30.1h-5.7v-30.1h-9.3z" fill="#8bc53f" fill-rule="nonzero" stroke="none" stroke-width="1" stroke-linecap="butt" stroke-linejoin="miter" stroke-miterlimit="10" stroke-dasharray="" stroke-dashoffset="0" font-family="none" font-weight="none" font-size="none" text-anchor="none" style="mix-blend-mode: normal" data-fill-palette-color="primary" opacity="1"></path></g></svg></g></svg></g></svg></g></svg></g><g transform="matrix(1,0,0,1,0,0.37368147239263294)"><svg viewBox="0 0 185.84941957275282 149.4725889570552" height="149.4725889570552" width="185.84941957275282"><g><svg xmlns="http://www.w3.org/2000/svg" xmlns:xlink="http://www.w3.org/1999/xlink" version="1.1" x="0" y="0" viewBox="0 9.78600025177002 100.0003433227539 80.42699432373047" enable-background="new 0 0 100 100" xml:space="preserve" width="185.84941957275282" height="149.4725889570552" class="icon-icon-0" data-fill-palette-color="accent" id="icon-0"><path d="M49.942 52.994c13.552-0.488 27.103-0.977 40.653-1.465-2.527-4.177-3.159-7.831-7.989-8.461-7.229-0.94-14.458-1.883-21.688-2.826-14.023-1.827-28.05-3.654-42.075-5.48C20.101 36.792 39.724 53.361 49.942 52.994z" fill="#5d9943" data-fill-palette-color="accent"></path><path d="M0 9.786c4.391 7.257 26.615 23.072 32.953 23.886 17.33 2.231 34.657 4.46 51.986 6.688-3.393-5.607-4.18-9.35-10.312-10.959-8.904-2.341-17.812-4.683-26.717-7.023C31.94 18.182 15.97 13.984 0 9.786z" fill="#5d9943" data-fill-palette-color="accent"></path><path d="M63.108 66.207c10.413-2.219 20.826-4.439 31.241-6.66-2.028-3.346-2.034-5.359-5.827-5.189-6.158 0.273-12.314 0.549-18.471 0.822-11.343 0.506-22.686 1.014-34.028 1.518C37.298 58.064 54.94 67.947 63.108 66.207z" fill="#5d9943" data-fill-palette-color="accent"></path><path d="M87.682 90.213c5.725-3.719 7.262-7.721 10.519-13.807 3.651-6.824 1.257-7.844-2.821-14.596-0.417-0.688-5.842 0.232-6.453 0.904-0.745 0.818-0.248 5.455-0.294 6.496C88.315 76.211 87.998 83.213 87.682 90.213z" fill="#5d9943" data-fill-palette-color="accent"></path><path d="M86.35 63.447c-3.795 0.809-8.604 0.191-9.572 4.229-1.373 5.736-2.746 11.475-4.12 17.211C81.904 82.678 86.028 71.582 86.35 63.447z" fill="#5d9943" data-fill-palette-color="accent"></path><path d="M74.666 66.121c-9.148 1.953-8.956 4.611-12.879 13.18C68.007 78.711 73.811 71.941 74.666 66.121z" fill="#5d9943" data-fill-palette-color="accent"></path></svg></g></svg></g></svg></g><defs></defs></svg><rect width="395.52" height="95.8118925916774" fill="none" stroke="none" visibility="hidden"></rect></g></svg></g></svg>